HIERARCHY
ROOT NOSE_ROOT
{
    OFFSET 0.0 0.0 0.0
    CHANNELS 6 Xposition Yposition Zposition Zrotation Xrotation Yrotation
    JOINT LEFT_SHOULDER
    {
        OFFSET 0.5647748811472476 0.0 0.0
        CHANNELS 3 Zrotation Xrotation Yrotation
        JOINT LEFT_ELBOW
        {
            OFFSET 0.3597729796818414 0.0 0.0
            CHANNELS 3 Zrotation Xrotation Yrotation
            JOINT LEFT_WRIST
            {
                OFFSET 0.39581236760934413 0.0 0.0
                CHANNELS 3 Zrotation Xrotation Yrotation
                JOINT LEFT_HAND_WRIST
                {
                    OFFSET 0.4147229367860473 0.0 0.0
                    CHANNELS 3 Zrotation Xrotation Yrotation
                    JOINT LEFT_THUMB_MCP
                    {
                        OFFSET 0.05057755074419427 0.0 0.0
                        CHANNELS 3 Zrotation Xrotation Yrotation
                        JOINT LEFT_THUMB_PIP
                        {
                            OFFSET 0.052031271323780326 0.0 0.0
                            CHANNELS 3 Zrotation Xrotation Yrotation
                            JOINT LEFT_THUMB_DIP
                            {
                                OFFSET 0.04236803378365635 0.0 0.0
                                CHANNELS 3 Zrotation Xrotation Yrotation
                                End Site
                                {
                                    OFFSET 0.0 0.0 0.01694721351346254
                                }
                            }
                        }
                    }
                    JOINT LEFT_INDEX_FINGER_MCP
                    {
                        OFFSET 0.10029830970292494 0.0 0.0
                        CHANNELS 3 Zrotation Xrotation Yrotation
                        JOINT LEFT_INDEX_FINGER_PIP
                        {
                            OFFSET 0.05036955411085743 0.0 0.0
                            CHANNELS 3 Zrotation Xrotation Yrotation
                            JOINT LEFT_INDEX_FINGER_DIP
                            {
                                OFFSET 0.026031120369852327 0.0 0.0
                                CHANNELS 3 Zrotation Xrotation Yrotation
                                End Site
                                {
                                    OFFSET 0.0 0.0 0.010412448147940932
                                }
                            }
                        }
                    }
                    JOINT LEFT_MIDDLE_FINGER_MCP
                    {
                        OFFSET 0.08626659004638051 0.0 0.0
                        CHANNELS 3 Zrotation Xrotation Yrotation
                        JOINT LEFT_MIDDLE_FINGER_PIP
                        {
                            OFFSET 0.05292066138593998 0.0 0.0
                            CHANNELS 3 Zrotation Xrotation Yrotation
                            JOINT LEFT_MIDDLE_FINGER_DIP
                            {
                                OFFSET 0.026119188278614945 0.0 0.0
                                CHANNELS 3 Zrotation Xrotation Yrotation
                                End Site
                                {
                                    OFFSET 0.0 0.0 0.010447675311445977
                                }
                            }
                        }
                    }
                    JOINT LEFT_RING_FINGER_MCP
                    {
                        OFFSET 0.08037300951659884 0.0 0.0
                        CHANNELS 3 Zrotation Xrotation Yrotation
                        JOINT LEFT_RING_FINGER_PIP
                        {
                            OFFSET 0.051220167874016564 0.0 0.0
                            CHANNELS 3 Zrotation Xrotation Yrotation
                            JOINT LEFT_RING_FINGER_DIP
                            {
                                OFFSET 0.025092416683080182 0.0 0.0
                                CHANNELS 3 Zrotation Xrotation Yrotation
                                End Site
                                {
                                    OFFSET 0.0 0.0 0.010036966673232074
                                }
                            }
                        }
                    }
                    JOINT LEFT_PINKY_MCP
                    {
                        OFFSET 0.08407814279320065 0.0 0.0
                        CHANNELS 3 Zrotation Xrotation Yrotation
                        JOINT LEFT_PINKY_PIP
                        {
                            OFFSET 0.04198770368988867 0.0 0.0
                            CHANNELS 3 Zrotation Xrotation Yrotation
                            JOINT LEFT_PINKY_DIP
                            {
                                OFFSET 0.02149550887916657 0.0 0.0
                                CHANNELS 3 Zrotation Xrotation Yrotation
                                End Site
                                {
                                    OFFSET 0.0 0.0 0.008598203551666628
                                }
                            }
                        }
                    }
                }
            }
        }
    }
    JOINT RIGHT_SHOULDER
    {
        OFFSET -0.5647748811472476 0.0 0.0
        CHANNELS 3 Zrotation Xrotation Yrotation
        JOINT RIGHT_ELBOW
        {
            OFFSET -0.3597729796818414 0.0 0.0
            CHANNELS 3 Zrotation Xrotation Yrotation
            JOINT RIGHT_WRIST
            {
                OFFSET -0.39581236760934413 0.0 0.0
                CHANNELS 3 Zrotation Xrotation Yrotation
                JOINT RIGHT_HAND_WRIST
                {
                    OFFSET -0.4147229367860473 0.0 0.0
                    CHANNELS 3 Zrotation Xrotation Yrotation
                    JOINT RIGHT_THUMB_MCP
                    {
                        OFFSET -0.05057755074419427 0.0 0.0
                        CHANNELS 3 Zrotation Xrotation Yrotation
                        JOINT RIGHT_THUMB_PIP
                        {
                            OFFSET -0.052031271323780326 0.0 0.0
                            CHANNELS 3 Zrotation Xrotation Yrotation
                            JOINT RIGHT_THUMB_DIP
                            {
                                OFFSET -0.04236803378365635 0.0 0.0
                                CHANNELS 3 Zrotation Xrotation Yrotation
                                End Site
                                {
                                    OFFSET 0.0 0.0 0.01694721351346254
                                }
                            }
                        }
                    }
                    JOINT RIGHT_INDEX_FINGER_MCP
                    {
                        OFFSET -0.10029830970292494 0.0 0.0
                        CHANNELS 3 Zrotation Xrotation Yrotation
                        JOINT RIGHT_INDEX_FINGER_PIP
                        {
                            OFFSET -0.05036955411085743 0.0 0.0
                            CHANNELS 3 Zrotation Xrotation Yrotation
                            JOINT RIGHT_INDEX_FINGER_DIP
                            {
                                OFFSET -0.026031120369852327 0.0 0.0
                                CHANNELS 3 Zrotation Xrotation Yrotation
                                End Site
                                {
                                    OFFSET 0.0 0.0 0.010412448147940932
                                }
                            }
                        }
                    }
                    JOINT RIGHT_MIDDLE_FINGER_MCP
                    {
                        OFFSET -0.08626659004638051 0.0 0.0
                        CHANNELS 3 Zrotation Xrotation Yrotation
                        JOINT RIGHT_MIDDLE_FINGER_PIP
                        {
                            OFFSET -0.05292066138593998 0.0 0.0
                            CHANNELS 3 Zrotation Xrotation Yrotation
                            JOINT RIGHT_MIDDLE_FINGER_DIP
                            {
                                OFFSET -0.026119188278614945 0.0 0.0
                                CHANNELS 3 Zrotation Xrotation Yrotation
                                End Site
                                {
                                    OFFSET 0.0 0.0 0.010447675311445977
                                }
                            }
                        }
                    }
                    JOINT RIGHT_RING_FINGER_MCP
                    {
                        OFFSET -0.08037300951659884 0.0 0.0
                        CHANNELS 3 Zrotation Xrotation Yrotation
                        JOINT RIGHT_RING_FINGER_PIP
                        {
                            OFFSET -0.051220167874016564 0.0 0.0
                            CHANNELS 3 Zrotation Xrotation Yrotation
                            JOINT RIGHT_RING_FINGER_DIP
                            {
                                OFFSET -0.025092416683080182 0.0 0.0
                                CHANNELS 3 Zrotation Xrotation Yrotation
                                End Site
                                {
                                    OFFSET 0.0 0.0 0.010036966673232074
                                }
                            }
                        }
                    }
                    JOINT RIGHT_PINKY_MCP
                    {
                        OFFSET -0.08407814279320065 0.0 0.0
                        CHANNELS 3 Zrotation Xrotation Yrotation
                        JOINT RIGHT_PINKY_PIP
                        {
                            OFFSET -0.04198770368988867 0.0 0.0
                            CHANNELS 3 Zrotation Xrotation Yrotation
                            JOINT RIGHT_PINKY_DIP
                            {
                                OFFSET -0.02149550887916657 0.0 0.0
                                CHANNELS 3 Zrotation Xrotation Yrotation
                                End Site
                                {
                                    OFFSET 0.0 0.0 0.008598203551666628
                                }
                            }
                        }
                    }
                }
            }
        }
    }
}
MOTION
Frames: 4
Frame Time: 0.03333333333333333
0.505542516708374 0.21045741438865662 -0.8735476732254028 179.52136501240315 -13.806761665901428 -159.24243413307013 -59.864282538613146 -62.263280953955395 20.47942347314999 -73.48665139685055 1.2567612409348439e-15 -7.000013685142436e-15 -92.76355642025148 2.7061684869940037 69.64972914802442 -85.67829810256563 22.83199078055027 177.1381796632934 16.266697515397222 -63.448842728734796 -1.0571972880685099 -15.235274812753186 -1.1249753625769912 -0.30637029022484574 -10.482341913746463 2.747669120061094 0.5081663636219957 -45.98204844521878 -54.70209384089836 -34.16069192266231 -12.517092403604256 -2.2218594010741692 -0.4931340183999922 -9.441215835778738 -3.6892724009822193 -0.6130348007012462 -62.435441051843725 -89.99189715312748 -47.82651213888183 -5.2754420799329385 -12.064715731492509 -1.1056430892346767 -177.0593694940275 -27.78484698252831 -178.62827448104895 178.87638908412669 -63.11032606757708 -160.13687223808685 -4.088253155392002 15.447884820021429 1.0906744103950587 -65.65519206882607 -77.69580123515094 -65.15131196970506 161.81782094065966 10.584881447778326 -162.59438315998145 -7.030635234617446 29.58777245600566 3.484646452286965 -17.288166041547708 -44.71939172798177 -12.352677205090325 -48.113593071917286 -77.00640905680714 -129.06023713560933 68.40390017966362 7.521424117989365e-15 2.579288612863968e-15 3.1805546814635176e-15 -8.827812596100317e-32 -3.1805546814635176e-15 -69.15921274922523 -1.8605496955615937 -51.82229994312316 22.620493660735818 -27.716680912276747 -90.66948554405376 15.734177236046994 -1.0806032560186871 0.3044185950859188 10.984948765433241 2.6127644409567363 -0.5069687229206848 69.7095766650894 -89.99189715312748 -96.53443324165399 13.151511113257685 -2.1032365497284036 0.491309778934441 9.831681237548164 -3.5107954452661647 0.6080155648222113 62.73555309907135 -89.99189715312748 -110.60060218712574 5.475702542060301 -11.622483990942829 1.106380976535699 176.93821678322894 -26.593669900347987 178.6283171531004 -123.27148231027654 -30.635117483591802 -158.06546930759527 4.097522705961519 16.22043083271919 -1.146377706539066 66.40644771682797 -77.12188968381052 65.86644284765619 -143.57539124611986 69.08552601682206 -157.72733194191193 7.137819113553618 29.121422737989345 -3.487475009213074 17.784500651985702 -43.40924181548126 12.431038971639218
0.5045058131217957 0.21748030185699463 -0.952938437461853 -179.81589690397675 -12.763163015333554 -160.2748114220402 -48.20792544403599 -61.48287341192152 30.4054167324552 -81.68351716597613 -1.5292291099028157e-15 -5.526140117225511e-15 15.89527315243353 1.4757095360526262 -17.639539542448404 -4.954968244280092 -3.255912100558482 -134.3821048847772 -44.267288314298256 30.296422088857952 12.641372391106936 -15.108980904691409 -1.0468470963768004 -0.2826190504892801 -10.356820670693645 2.5631328991587705 0.46825984551340044 -84.63899445223755 12.252719143997071 28.603724043629207 -12.344387170114132 -2.079607424132479 -0.4550062110627326 -9.307318449963132 -3.4582101854671548 -0.5663947086893497 -83.99518880727969 -11.185001560908358 26.785802223253228 -5.1129695607814725 -11.507542470117073 -1.0226294144207726 -177.1375452019671 -26.24389281769455 -178.7333945045685 146.85544318766196 -89.99189715312748 160.90333154413833 -3.785217905560035 16.45169458600427 1.0734364361836934 -64.88434865393312 -77.78198739004159 -64.37616519550728 136.96447191375066 -79.95934538009175 170.27652798028075 -6.619674568303046 28.9837893036838 3.2186027101118717 -16.620143188415163 -43.23445188782829 -11.555719111848592 -32.28088817516967 -79.33487211802168 -111.34009463193306 76.1573350621556 5.420360574723666e-16 -4.4652047070608975e-15 -1.5902773407317584e-15 -1.1034765745125397e-32 7.951386703658792e-16 -58.423105641902296 -33.346739430467494 -82.51513388241213 -176.44111124917205 -83.62912234476352 139.93006838337598 18.23144695180528 2.0781720151156375 -0.6843497013090237 11.917769556940788 2.01033092459296 -0.42419957824174737 131.82118709789464 -47.845058768721074 85.83879831545188 14.622544835608078 -2.92323853047137 0.7622991934154776 8.880598976942705 -11.987776263280189 1.8587887930841733 134.03320217789445 -43.95067873138169 88.73199704265075 5.180140030097951 -15.12512035386348 1.3550845989672204 176.79569551305775 -26.3907870565318 178.57452244877908 148.5449662413173 -42.2991066711932 99.18107181744256 8.522923225322119 -66.84324211444032 7.845168665978302 137.03249097542974 -73.83178739333556 138.1837130741592 -63.348864553198396 39.84163094680038 101.07924723581884 6.782207149300965 45.11736295039451 -4.816750007589231 20.453308502522045 -51.005961372706444 16.16506428823416
0.5041302442550659 0.22432780265808105 -0.8038598895072937 179.6303126964615 -15.807025881456063 -157.3316157085993 -68.88752152727852 -60.96696027487981 10.353196846725899 -73.10661852564083 6.60704960337894e-16 4.449193760553017e-15 16.579667098097644 1.6354236996205407 -17.384232531962915 2.212027759103352 1.3934015455763902 -135.94280778826263 -43.40373080495343 24.501781547245887 10.16970404400662 -15.033135608745296 -1.1697322476587717 -0.3141290087844204 -10.286622091672562 2.867940324742461 0.5202697469147677 -83.96349842538089 8.23192008393644 24.47442214779232 -12.276705161745715 -2.321219384579508 -0.5049679151356514 -9.298797082339217 -3.8431022711403307 -0.6287523140558006 -83.921635935692 -17.802099112649273 22.674269285677106 -5.233134019936968 -12.423643737129234 -1.1288428497179819 -177.09128246215994 -28.792485059245674 -178.59812400262086 151.75861935674837 -89.99189715312748 163.96682194798964 -4.172392270978354 14.833399837541423 1.0699390870387513 -65.46306155337966 -77.92749009901114 -64.97544004367157 137.93525882920875 -89.99189715312748 172.06696432584025 -7.102163144993878 29.925787851047385 3.556795059885755 -17.24998952945447 -45.71624184729512 -12.532498655529878 -159.00115583640863 -81.55217527880171 132.73712426720988 75.96942992375158 -5.576242112822981e-15 -7.625675608104169e-15 -4.67143968839954e-15 3.1805546814635168e-15 -1.4908850069360223e-16 -68.91808358305599 -40.34650742521761 -76.86974107601145 -115.1242717164929 -66.14671143633649 -151.5705512207674 24.36295103354395 4.8599100936137365 -2.1970494157060294 15.0426343534799 0.6897559127609121 -0.18536462959630043 131.01668409692007 -52.075916879523334 95.32944603216774 18.901508598897255 -3.024199609017054 1.0349106075766121 8.133748394140847 -24.83550748132098 3.435306256334199 122.77670397227845 -44.654592370889794 91.29093287273936 5.773403696457471 -0.8205566105405216 0.08296139845540028 176.27442597734358 -18.042111103453326 178.84465808029447 106.23160914363403 -43.65297034639116 80.11205282766176 6.225115000286979 -55.402460644802915 5.1307705884592805 169.10182614655787 -25.25509517532315 175.3039489792305 58.56651315611198 -26.51775515256278 54.9246984070204 176.0519809374058 -53.190901045724914 176.8372768786696 152.68506396323622 -61.334397479148635 155.62151963001565
0.5025589466094971 0.22528010606765747 -0.8143191337585449 -178.77451942622656 -14.75578977314719 -157.70332046637637 -64.87819772979576 -60.86612483869724 12.147097470655758 -71.95749298832865 -1.2869080423516878e-15 -9.342642618528336e-16 -92.02369058229635 3.6893609648868986 -86.78434829343634 -71.26672750413407 22.273596032022347 -177.2357371443709 173.6288633166501 64.29919851858888 178.8082932342417 -14.625896257479784 -1.2548194828845765 -0.3274319509073901 -9.903206809091358 3.0991847358394726 0.5407931993441754 -158.18316662664162 56.293224363498375 163.64074251060006 -11.808333075615227 -2.5123149091796164 -0.5250482896900166 -9.016358939889573 -4.136154551754393 -0.6557146234463144 -151.61790317083882 89.99189715312748 158.6745086853424 -5.146998351576268 -13.065623456561452 -1.166544779828969 -177.1551882731057 -30.66671024458712 -178.5481403059247 -1.1720258341561485 64.39834577402564 44.070902245624254 -4.314506650189734 13.771686158741478 1.028918642648857 -64.92506682859113 -78.36412674462251 -64.46533772012044 30.646742133756103 -8.15817326227273 32.34023423466666 -7.214178381229581 30.430347487621194 3.668325030152218 -17.123907895608205 -47.471511152433514 -12.792098533507776 161.61599337242404 -61.09285256450609 103.15300925860662 66.75220135130864 1.0170895943884995e-14 -4.7960376062857795e-15 0.0 0.0 -1.1927080055488188e-15 -82.55572315685778 -49.76196014209755 -72.64044352194873 -103.26663732767085 -37.57057398851083 -127.72986066737634 34.18225823684083 4.6580924620992326 -3.156846175062324 22.579099988229594 -0.7321852473252088 0.3044548375763498 131.98623106404602 -61.06559637623193 108.43716466005549 27.22248690045792 -1.9538763081344217 1.0048277690252674 7.648910111465444 -38.778207330616425 4.807914977614957 113.04464791927064 -47.10468285597763 96.62657973144067 9.605797760535893 16.87858207852486 -2.813155495051875 174.2174764434176 -6.924364718516446 179.30052292430153 97.68975467187002 -47.49837603400705 84.57652089078086 8.225093519671734 -24.494176535270515 3.4296479559098776 170.4588646516402 17.228857383888375 -177.14995744311517 80.25081350360269 -46.35094393570512 78.02370506854487 10.935034496121013 -23.60930788113881 4.424601531269721 167.11550265922284 19.73569403134066 -175.58305663735652
